<svg xmlns="http://www.w3.org/2000/svg" width="65" height="65" fill="none" viewBox="0 0 65 65">
  <path fill="#FFF9EB" d="M48.58 24.854c4.59-3.436 8.148-8 10.701-12.968 1.91-3.716 3.277-7.79 3.572-11.881-1.284-.073-2.73.75-3.653 1.435-6.37 4.72-11.59 11.039-16.296 17.199-2.803 3.67-5.28 7.581-7.158 11.745.485-.03.962-.086 1.423-.192 4.163-.95 8.065-2.834 11.41-5.338Z"/>
  <path fill="#FFF9EB" d="M63.361.086a2.478 2.478 0 0 0-.508-.081c-.295 4.092-1.663 8.165-3.572 11.881-2.553 4.968-6.111 9.532-10.702 12.968-3.345 2.504-7.247 4.388-11.41 5.338a8.779 8.779 0 0 1-1.423.192 43.59 43.59 0 0 0-.506 1.163c-.285.68-.748 1.919-1.099 3.294.62-.293 1.275-.491 1.967-.516 1.197-.042 2.351.444 3.338 1.081.769.496 1.486 1.113 1.866 1.913.249.524.337 1.088.332 1.663 1.043-.834 2.003-1.738 2.829-2.45 6.291-5.418 11.698-12.225 15.55-19.625 1.875-3.599 3.382-7.339 4.444-11.127.455-1.625 1.33-5.031-1.106-5.694Z"/>
  <path fill="#FFF9EB" d="M39.446 35.406c-.987-.637-2.141-1.123-3.338-1.08-.692.024-1.348.222-1.966.515-.654.31-1.265.727-1.831 1.162a22.714 22.714 0 0 0-2.98 2.742c-.504.554-.99 1.177-1.28 1.847a9.8 9.8 0 0 1 3.334-.137c2.74.37 5.325 2.293 6.836 4.623a9.39 9.39 0 0 1 .833 1.593c1.288-1.535 1.92-4.08 2.343-5.906.134-.582.24-1.188.247-1.783.005-.575-.083-1.14-.332-1.663-.38-.8-1.097-1.417-1.866-1.913Z"/>
  <path fill="#55E6C1" d="M32.29 44.267c-3.669.114-7.406 1.625-9.499 4.46-.417.566-.71 1.218-.972 1.892.09.175.15.368.193.57.167.799.084 1.732.738 2.238.52.402 1.32.325 1.89-.008.573-.334.97-.872 1.35-1.394l2.15-2.953c.35-.481.714-.975 1.232-1.294 1.132-.698 2.868-.249 3.46.895.635 1.23-.031 2.708-.896 3.807-.866 1.1-1.966 2.11-2.328 3.436-.18.662-.114 1.46.446 1.896.504.392 1.225.367 1.87.467.268.042.55.136.785.275a22.379 22.379 0 0 0 4.2-3.351c1.974-2.023 3.173-4.784 2.474-7.535a7.784 7.784 0 0 0-.329-.997 9.391 9.391 0 0 0-.834-1.593c-1.926-.56-3.918-.874-5.93-.811Z"/>
  <path fill="#55E6C1" d="M21.532 50.232c.122.114.215.245.287.386.262-.673.555-1.325.972-1.89 2.093-2.836 5.83-4.347 9.499-4.461 2.012-.063 4.004.25 5.93.81-1.51-2.329-4.094-4.252-6.835-4.622a9.805 9.805 0 0 0-3.334.137c-3.523.743-6.647 3.303-7.614 6.602-.227.775-.35 1.582-.441 2.397.196.046.39.101.576.161.346.11.7.238.96.48Z"/>
  <path fill="#55E6C1" d="M30.054 57.812c-.56-.436-.626-1.234-.445-1.896.36-1.325 1.461-2.335 2.327-3.436.865-1.1 1.531-2.576.895-3.807-.591-1.144-2.327-1.593-3.459-.895-.518.32-.881.813-1.232 1.294l-2.15 2.953c-.38.522-.777 1.06-1.35 1.394-.57.333-1.37.41-1.89.008-.654-.506-.571-1.44-.738-2.238a4.28 4.28 0 0 0-.482.15c-1.085.42-1.688 1.56-1.785 2.66-.071.802.22 1.78 1.046 1.99.543.139 1.1-.113 1.643-.25.543-.137 1.258-.084 1.487.4.176.37-.04.805-.33 1.103-.447.456-1.06.733-1.677.948-1.435.5-2.958.715-4.454 1.018-1.495.303-3.002.708-4.257 1.531-.893.586-1.445 1.327-1.96 2.207 1.299 1.07 3.025 1.605 4.738 1.86a18.24 18.24 0 0 0 8.637-.822c2.619-.912 4.803-2.53 7.413-3.514.547-.206 1.182-.52 1.224-1.072.028-.36-.213-.647-.546-.844a2.268 2.268 0 0 0-.785-.275c-.645-.1-1.366-.075-1.87-.467Z"/>
  <path fill="#55E6C1" d="M24.256 62.072a16.312 16.312 0 0 1-10.377.302c-.447-.136-.638.525-.194.66a17.005 17.005 0 0 0 10.764-.302c.432-.158.244-.82-.193-.66Zm4.708-1.79a9.445 9.445 0 0 0-3.087 1.2c-.392.24-.027.832.367.591a8.838 8.838 0 0 1 2.913-1.13c.458-.092.265-.752-.193-.661Zm.434-5.692c.802-.997 4.536-5.827 1.159-6.088-.467-.036-.465.649 0 .685 1.974.152-1.308 4.462-1.787 5.057-.283.352.35.693.628.346Zm-16.195 6.15c1.255-.824 2.762-1.23 4.257-1.532 1.496-.303 3.02-.519 4.454-1.018.617-.215 1.23-.492 1.677-.948.29-.298.506-.733.33-1.103-.23-.484-.944-.537-1.487-.4-.544.137-1.1.389-1.643.25-.826-.21-1.117-1.188-1.046-1.99.097-1.1.7-2.24 1.785-2.66a4.24 4.24 0 0 1 .482-.15 2.257 2.257 0 0 0-.193-.57 1.383 1.383 0 0 0-.287-.387c-.26-.242-.614-.37-.96-.48a7.465 7.465 0 0 0-.576-.161c-.697-.163-1.43-.201-2 .174-.797.524-.884 1.577-.962 2.488-.179 2.107-.901 4.436-2.883 5.432-1.434.72-3.503.771-4.124 2.185-.439.997.176 2.146 1.003 2.893.07.063.14.124.214.183.514-.88 1.066-1.62 1.96-2.207ZM36.9 51.73c-.484 1.006-.913 1.984-1.593 2.894-.744.995-1.663 1.701-2.57 2.541-.036.033.009.086.051.064 1.95-1.032 3.717-3.425 4.219-5.456.014-.058-.078-.102-.106-.043Zm.613-5.348c-.016.57.057 1.137.039 1.708-.019.57-.112 1.131-.177 1.698-.014.12.185.138.219.028.32-1.059.434-2.39.127-3.46-.031-.11-.205-.086-.208.026Zm2.518-8.976c-.387.983-.527 2.075-.752 3.1-.2.92-.505 1.883-.514 2.825 0 .046.063.047.08.01.423-.959.552-2.078.773-3.094.201-.929.489-1.876.538-2.825.003-.07-.101-.075-.125-.016Zm-2.029-1.011c-.926 1.128-2.027 2.345-2.681 3.634-.043.084.066.176.143.104 1.081-1.02 1.934-2.406 2.76-3.615.093-.135-.124-.242-.222-.123Zm-1.742-1.051c-1.82.928-3.835 2.056-5.25 3.5-.058.06.017.161.096.116 1.808-1.05 3.47-2.353 5.267-3.435.12-.073.014-.245-.113-.18ZM53.559 24.55c-1.465 1.817-2.845 3.676-4.474 5.371-1.568 1.63-3.324 3.047-5.018 4.552-.076.068.024.195.114.138 1.97-1.246 3.7-2.889 5.281-4.545 1.587-1.663 3.126-3.454 4.236-5.439.05-.089-.078-.153-.14-.077Zm7.905-13.747c-.861 1.908-1.605 3.841-2.641 5.677-1.033 1.83-2.25 3.558-3.55 5.23-.064.082.081.188.151.11a29.822 29.822 0 0 0 3.689-5.18c1.03-1.816 2.007-3.765 2.494-5.78.019-.077-.107-.137-.143-.057Zm-4-5.593c.876-.22 1.661-.8 2.42-1.25.182-.107.02-.367-.168-.27-.788.404-1.708.766-2.34 1.378-.064.06 0 .165.088.143Zm1.531 1.255c-.02.084.102.14.152.06.302-.489.607-.974 1.041-1.373.13-.12-.066-.304-.2-.188-.473.41-.86.9-.993 1.5Z"/>
  <path fill="#FFF9EB" d="M44.197 23.55c1.278-.743 2.244-2.562 3.132-3.673l6.179-7.734c.33-.414.672-.852.743-1.366.072-.513-.239-1.112-.783-1.193-.308-.045-.613.08-.887.22-1.716.874-2.93 2.4-4.087 3.878-2.045 2.611-4.103 5.244-5.562 8.182-.51 1.027-.156 2.512 1.265 1.686Z"/>
  <path fill="#55E6C1" d="M4.43 48.506c-.92 1.814-.771 4.154.65 5.654 1.35 1.425 3.563 1.876 5.582 1.686 1.002-.094 2.006-.332 2.864-.828a4.27 4.27 0 0 0 1.168-.979c.07-.226.036-.416-.24-.45-.646-.077-1.196.471-1.763.673a4.033 4.033 0 0 1-2.002.171 3.728 3.728 0 0 1-1.836-.851c-1.375-1.199-1.521-3.06-1.978-4.664-.283-.99-.932-1.998-1.818-2.486.03.122.044.246.041.373-.014.61-.389 1.15-.668 1.701Z"/>
  <path fill="#55E6C1" d="M14.257 54.784c.136-.17.356-.481.437-.745a4.27 4.27 0 0 1-1.168.98c-.858.495-1.862.733-2.864.827-2.02.19-4.232-.261-5.582-1.686-1.421-1.5-1.57-3.84-.65-5.654.28-.55.654-1.091.668-1.7a1.444 1.444 0 0 0-.04-.374c-.675-.37-1.486-.44-2.377.03-2.624 1.381-3.299 4.99-2.126 7.407 1.703 3.511 6.487 4.36 10.082 3.178 1.308-.43 2.769-1.208 3.62-2.263Zm1.567-3.814c.352-.702-1.688-1.569-1.938-2.238a2.158 2.158 0 0 1-.1-.355c-.35-1.858 2.83-4.994.322-6.377-.877-.484-1.824-.13-2.553.416-2.441 1.826-2.647 5.373-.466 7.452.664.632 4.013 2.535 4.735 1.101Z"/>
</svg>
